<mxfile host="www.draw.io" modified="2020-03-02T10:06:12.864Z" agent="Mozilla/5.0 (Macintosh; Intel Mac OS X 10_14_6) AppleWebKit/605.1.15 (KHTML, like Gecko) Version/13.0.5 Safari/605.1.15" etag="9JgW2DuToHyyCAZPHfXU" version="12.7.9" type="github">
  <diagram name="Page-1" id="4fc8d65c-f3f6-feb3-4d1c-02f59d9f9886">
    <mxGraphModel dx="2012" dy="787" grid="1" gridSize="10" guides="1" tooltips="1" connect="1" arrows="1" fold="1" page="1" pageScale="1" pageWidth="826" pageHeight="1169" background="#ffffff" math="0" shadow="0">
      <root>
        <mxCell id="0" />
        <mxCell id="1" parent="0" />
        <mxCell id="jB2IKIS2CUJutIkacPpY-264" value="Infrastruktur" style="swimlane;" vertex="1" parent="1">
          <mxGeometry x="-710" y="430" width="550" height="170" as="geometry" />
        </mxCell>
        <mxCell id="jB2IKIS2CUJutIkacPpY-265" value="Infrastruktur" style="swimlane;" vertex="1" parent="1">
          <mxGeometry x="-710" y="260" width="550" height="150" as="geometry" />
        </mxCell>
        <mxCell id="jB2IKIS2CUJutIkacPpY-266" value="Architektur" style="swimlane;" vertex="1" parent="1">
          <mxGeometry x="-140" y="225" width="230" height="375" as="geometry" />
        </mxCell>
      </root>
    </mxGraphModel>
  </diagram>
</mxfile>
